<svg xmlns="http://www.w3.org/2000/svg" xmlns:xlink="http://www.w3.org/1999/xlink" width="44.135" height="39.263" viewBox="0 0 44.135 39.263"><defs><style>.a,.c{fill:none;stroke-linecap:round;stroke-linejoin:round;stroke-width:1.5px;}.a{stroke:#707070;}.b{clip-path:url(#a);}.c{stroke:#121212;}</style><clipPath id="a"><rect class="a" width="44.135" height="39.263"/></clipPath></defs><g class="b"><path class="c" d="M35.959,16.321,19.457,1.39a1.446,1.446,0,0,0-1.945,0L1.01,16.321,1,16.31,17.5,1.379a1.46,1.46,0,0,1,1.964,0l16.5,14.93Z" transform="translate(3.583 3.583)"/><path class="c" d="M27.3,37.022h8.345A1.316,1.316,0,0,0,36.962,35.7V22.859h.015V35.7a1.331,1.331,0,0,1-1.331,1.331H20.017" transform="translate(-1.584 -2.356)"/><path class="c" d="M16.4,37.036H8.761a2.049,2.049,0,0,1-2.049-2.049V22.859h.014V34.987a2.035,2.035,0,0,0,2.035,2.035h7.627" transform="translate(2.031 -2.356)"/></g></svg>